<svg xmlns="http://www.w3.org/2000/svg" viewBox="0 0 512 512">
	<path fill="#fc2" d="M49.8 186.6C76.6 124.4 125.4 67 187.6 38.3c52.6-24 110-26.8 164.6-9.6 14 4.5 27.7 9.9 41.1 16.3 39.3 19.1 68 50.7 83.3 92.8 20 57.4 12.4 119.6-4.8 175.1l-2 9.6a51 51 0 0 0 8.7 37.3c6.7 10.6 17.2 21 14.4 35.4-4.8 24-24 41.2-46 51.7-23 12.5-48.8 21-74.6 26.8a561.3 561.3 0 0 1-187.6 7.7c-21.7-2.6-43-6.7-64.1-12.5a260 260 0 0 1-67-27.7c-17.2-10.5-35.4-28.7-34.5-50.7v-7.7c-2.8-67 3.9-134 30.7-196.2Zm0 0"/>
	<path fill="#431" d="M193.3 160.8c-8.6 21-35.4 26.8-50.7 9.5-15.3-16.2-12.4-50.7 7.7-61.2 10.5-5.7 23-4.8 32.5 2 15.3 11.4 17.2 33.4 10.5 49.7Zm0 0"/>
	<path fill="#862" d="M149.7 140.5c4.5 3.1 11 1.4 14.7-3.8 3.6-5.1 3-11.9-1.5-15-4.5-3.1-11-1.5-14.7 3.7-3.6 5.2-3 12 1.5 15.1Zm0 0"/>
	<path fill="#431" d="M332 192.4c-7 4.4-14.6 5.4-22.9 2.8-26.8-7.6-30.6-47.8-12.4-66a32.2 32.2 0 0 1 35.4-4.8c24 13.4 24 55.5 0 68Zm0 0"/>
	<path fill="#862" d="M302.7 155.3c4.4 3 11 1.1 14.5-4.1 3.5-5.3 2.8-12-1.7-15s-11-1.2-14.5 4c-3.6 5.3-2.8 12 1.7 15Zm0 0"/>
	<path fill="#4ce" d="m281.4 356-14.4-2-1-.9 3.9-30.6c0-.5.4-1 1-1l15.2 2a2 2 0 0 0 2-2l2.8-22a2 2 0 0 0-1-1.9l-15.2-2.8h-1l3.8-27.8 1-1 20 3c1.1 0 2-1 2-2l3.8-23c0-1-.8-1.9-1.9-1.9l-33.5-4.8c-1 0-1.9.9-1.9 2L248.8 376c-.6 2 0 2.9 2 2.9l5.7 1a62.4 62.4 0 0 0-6.7 18.1v9.6l-1 1-98.6-13.5v-1c10.6-17.1 11.5-37.2-3.8-52.5a38.9 38.9 0 0 0-9.5-8.7l3.8-26.8h1l15.2 2a2 2 0 0 0 2-2l2.8-23c0-1.2-.6-1.8-1.9-1.8l-15.3-2v-1l3.8-29.6h1l19.1 2a2 2 0 0 0 1-1l3.8-23c0-1-.8-1.9-1.9-1.9l-31.6-4.8-1.9 1-1 5.7-13.3 98.6a35.9 35.9 0 0 0-16.3-3.8h-1l16.3-118.7c1-6.7 1-11.5 7.7-13.4h6.7l172.2 23a25 25 0 0 1 9.6 2.8c3.8 2 5 5.4 3.8 10.6l-16.3 123.4c-8.9 0-16.9 2.2-23.9 6.7Zm0 0"/>
	<path fill="#fff" d="M136.9 333a45.8 45.8 0 0 0-13.4-7.6l13.4-98.6 1-5.7 1.8-1 31.6 4.8c1 0 2 .9 2 2l-4 22.9a2 2 0 0 1-.9 1l-19.1-2h-1l-3.8 29.7v1l15.3 1.9c1.3 0 2 .6 2 1.9l-3 23c0 1-.8 1.9-1.9 1.9l-15.3-2h-1Zm43-10.5-6.7 44c0 1-.8 2-1.9 2l-10.5-2a2 2 0 0 1-1-1.9L178 226.8a2 2 0 0 1 2-1l21 3c7.6.9 11.5 11.4 11.5 18.1 2.5 19.8.3 39-6.7 57.4a38 38 0 0 1-9.6 16.3 1 1 0 0 0 0 1l5.7 47.8a2 2 0 1 1-2.8 2.9l-8.7-2c-1.2.1-2.4-.6-2.8-1.9l-5.8-45.9c0-.5-.4-1-1-1h-.9Zm48.8-5.7-4.8 30.6 1 1 20.1 2.8c1 0 2 .9 2 2l-3 22c-.6 1.9-1.6 2.5-2.8 1.9l-32.6-3.9c-1 0-1.9-.8-1.9-1.9L225 233.5c0-1 .9-1.9 2-1.9l33.4 4.8a2 2 0 0 1 2 2.9l-3 22a2 2 0 0 1-2.8 1.9l-20.1-2.9-3.8 28.7a1 1 0 0 0 0 1l15.3 1.9c1.2 0 1.9.6 1.9 1.9l-2.9 22c-.6 2-1.6 2.6-2.9 2l-15.3-2Zm52.7 39.2h-1a94.8 94.8 0 0 0-24 24l-5.7-1c-1.9 0-2.5-1-1.9-2.9L267 239.3c0-1.1.9-2 2-2l33.4 4.8c1 0 2 .9 2 2l-3.9 22.9c0 1-.9 2-2 2l-20-3-1 1-3.8 27.8h1l15.3 2.8a2 2 0 0 1 1 2l-3 22c0 1-.8 1.9-1.9 1.9l-15.3-2a1 1 0 0 0-1 1l-3.8 30.6 1 1Zm0 0"/>
	<path fill="#4ce" d="M187.6 255.5c0-.5.4-1 1-1l6.6 1c2.2 0 4 1.9 5.1 5.4a31 31 0 0 1 .7 12.8l-1 5.7c-.7 4.7-2.2 9-4.2 11.9-2 2.9-4.3 4.1-6.3 3.5l-5.8-1a1 1 0 0 1-1-1Zm0 0"/>
</svg>
